# xmcd
#
# Track frame offsets:
#  154
#  11279
#  28549
#  41117
#  58580
#  69200
#  86442
#  97700
#  107900
#  120673
#
# Disc length: 1822 seconds
#
# Revision: 0
# Processed by: cddbd v1.4PL0 Copyright (c) Steve Scherf et al.
# Submitted via: AltoMP3_Maker 3.0
#
DISCID=6f071c0a
DTITLE=James Foley - More hot country hits vol 5
DYEAR=1900
DGENRE=
TTITLE0=Tall tall trees
TTITLE1=Living on love
TTITLE2=Calin'baton rouge
TTITLE3=Any more
TTITLE4=Long neck bottle
TTITLE5=Gone country
TTITLE6=No news
TTITLE7=Same ol'love
TTITLE8=Help me hold on
TTITLE9=Where am i gone a live
EXTD=
EXTT0=
EXTT1=
EXTT2=
EXTT3=
EXTT4=
EXTT5=
EXTT6=
EXTT7=
EXTT8=
EXTT9=
PLAYORDER=
